<svg xmlns="http://www.w3.org/2000/svg" id="Layer_1" data-name="Layer 1" viewBox="0 0 500 500"><defs><style>.cls-1{fill:#fdd209}</style></defs><path d="M37.8 125.78V444.5s2.91 55.5 76.69 55.5h135.52V59.84S157.79 1.47 51.92 94.59a41.55 41.55 0 0 0-14.12 31.19"/><path d="M462.2 125.78V444.5s-2.91 55.5-76.69 55.5H249.99V59.84s92.22-58.37 198.09 34.75a41.55 41.55 0 0 1 14.12 31.19"/><path d="M37.8 138.17h424.41V444.5H37.8zM54.3 0h391.41c9.11 0 16.5 7.39 16.5 16.5v65.87H37.8V16.5C37.8 7.39 45.19 0 54.3 0" class="cls-1"/><path d="m427.95 312.31-162.37 89.44c-9.6 5.29-21.56 5.29-31.17 0L72.04 312.31c-20.31-11.19-19.81-38.62.89-49.17l162.37-82.7c9.15-4.66 20.23-4.66 29.39 0l162.37 82.7c20.7 10.54 21.2 37.98.89 49.17" style="fill:#e32026"/></svg>